<svg id="Layer_1" data-name="Layer 1" xmlns="http://www.w3.org/2000/svg" viewBox="0 0 482.28 469.22" height="120" width="120" ><path d="M474.17,99.62,383.44,8.27a28.18,28.18,0,0,0-38.31-1.46L65.47,248.5l9.19,10.63L354.32,17.44a14.08,14.08,0,0,1,19.15.73l90.73,91.35a14.14,14.14,0,0,1,.7,19.06L226.06,406.85a8.2,8.2,0,0,1-11.85.63l-118.94-112a19.64,19.64,0,0,0-27.4.59L52.49,311.86A17.88,17.88,0,0,0,52,336.18l4.57,5.1A10.7,10.7,0,0,1,56.09,356L42.18,369.77A18.32,18.32,0,0,0,39,391.51l-34.14,33a15.77,15.77,0,0,0,5.2,26l47.69,18.69,5.13-13.08L15.15,437.45a1.72,1.72,0,0,1-.57-2.84L48.36,402l50.48,50.47,31.51-24.29a10.68,10.68,0,0,1,14.21,1L158,443.09l10.1-9.77-13.47-13.91A24.72,24.72,0,0,0,121.77,417L100,433.77l-48-48a4.24,4.24,0,0,1,0-6L66,366a24.73,24.73,0,0,0,1-34.09l-4.57-5.11a3.78,3.78,0,0,1,.11-5.14l15.38-15.79a5.51,5.51,0,0,1,7.7-.16l119,112A22.25,22.25,0,0,0,236.72,416L475.56,137.73A28.27,28.27,0,0,0,474.17,99.62Z"/><rect x="347.18" y="112.66" width="33.37" height="14.05" transform="translate(29.76 307.04) rotate(-47.49)"/><rect x="163.71" y="216.5" width="193.32" height="14.05" transform="translate(-81.52 253) rotate(-45.57)"/></svg>